<mxfile host="app.diagrams.net" modified="2022-06-02T20:09:59.298Z" agent="5.0 (Windows NT 10.0; Win64; x64) AppleWebKit/537.36 (KHTML, like Gecko) Chrome/102.0.5005.61 Safari/537.36" etag="0PzFt5KTcQk1IfYCXDlk" version="18.1.3" type="github">
  <diagram id="FUrydyEFK-NKsZXM2_vT" name="Page-1">
    <mxGraphModel dx="606" dy="322" grid="1" gridSize="10" guides="1" tooltips="1" connect="1" arrows="1" fold="1" page="1" pageScale="1" pageWidth="850" pageHeight="1100" math="0" shadow="0">
      <root>
        <mxCell id="0" />
        <mxCell id="1" parent="0" />
        <mxCell id="_4vvvY8Deeb2kWK_XAvJ-1" value="&lt;font style=&quot;font-size: 14px;&quot;&gt;Ext A (External entity)&lt;/font&gt;" style="rounded=0;whiteSpace=wrap;html=1;" vertex="1" parent="1">
          <mxGeometry x="60" y="60" width="110" height="50" as="geometry" />
        </mxCell>
        <mxCell id="_4vvvY8Deeb2kWK_XAvJ-3" value="&lt;font style=&quot;font-size: 14px;&quot;&gt;Top level process&lt;/font&gt;" style="ellipse;whiteSpace=wrap;html=1;aspect=fixed;" vertex="1" parent="1">
          <mxGeometry x="270" y="26.25" width="117.5" height="117.5" as="geometry" />
        </mxCell>
        <mxCell id="_4vvvY8Deeb2kWK_XAvJ-4" value="" style="endArrow=classic;html=1;rounded=0;exitX=1;exitY=0.5;exitDx=0;exitDy=0;entryX=0;entryY=0.5;entryDx=0;entryDy=0;" edge="1" parent="1" source="_4vvvY8Deeb2kWK_XAvJ-1" target="_4vvvY8Deeb2kWK_XAvJ-3">
          <mxGeometry width="50" height="50" relative="1" as="geometry">
            <mxPoint x="220" y="140" as="sourcePoint" />
            <mxPoint x="250" y="110" as="targetPoint" />
          </mxGeometry>
        </mxCell>
        <mxCell id="_4vvvY8Deeb2kWK_XAvJ-5" value="" style="endArrow=classic;html=1;rounded=0;entryX=0;entryY=0.5;entryDx=0;entryDy=0;exitX=1;exitY=0.5;exitDx=0;exitDy=0;" edge="1" parent="1" source="_4vvvY8Deeb2kWK_XAvJ-3" target="_4vvvY8Deeb2kWK_XAvJ-6">
          <mxGeometry width="50" height="50" relative="1" as="geometry">
            <mxPoint x="400" y="220" as="sourcePoint" />
            <mxPoint x="510" y="90" as="targetPoint" />
          </mxGeometry>
        </mxCell>
        <mxCell id="_4vvvY8Deeb2kWK_XAvJ-6" value="&lt;font style=&quot;font-size: 14px;&quot;&gt;Ext B&lt;/font&gt;" style="rounded=0;whiteSpace=wrap;html=1;" vertex="1" parent="1">
          <mxGeometry x="490" y="60" width="110" height="50" as="geometry" />
        </mxCell>
        <mxCell id="_4vvvY8Deeb2kWK_XAvJ-8" value="&lt;font style=&quot;font-size: 14px;&quot;&gt;Ext A&lt;/font&gt;" style="rounded=0;whiteSpace=wrap;html=1;" vertex="1" parent="1">
          <mxGeometry x="60" y="233.75" width="110" height="50" as="geometry" />
        </mxCell>
        <mxCell id="_4vvvY8Deeb2kWK_XAvJ-10" value="" style="endArrow=classic;html=1;rounded=0;exitX=1;exitY=0.5;exitDx=0;exitDy=0;entryX=0;entryY=1;entryDx=0;entryDy=0;" edge="1" parent="1" source="_4vvvY8Deeb2kWK_XAvJ-8" target="_4vvvY8Deeb2kWK_XAvJ-14">
          <mxGeometry width="50" height="50" relative="1" as="geometry">
            <mxPoint x="218.75" y="313.75" as="sourcePoint" />
            <mxPoint x="260" y="259" as="targetPoint" />
            <Array as="points">
              <mxPoint x="252" y="259" />
            </Array>
          </mxGeometry>
        </mxCell>
        <mxCell id="_4vvvY8Deeb2kWK_XAvJ-11" value="" style="endArrow=classic;html=1;rounded=0;entryX=0;entryY=0.5;entryDx=0;entryDy=0;exitX=1;exitY=0.5;exitDx=0;exitDy=0;" edge="1" parent="1" source="_4vvvY8Deeb2kWK_XAvJ-16" target="_4vvvY8Deeb2kWK_XAvJ-12">
          <mxGeometry width="50" height="50" relative="1" as="geometry">
            <mxPoint x="440" y="260" as="sourcePoint" />
            <mxPoint x="508.75" y="263.75" as="targetPoint" />
            <Array as="points">
              <mxPoint x="460" y="310" />
              <mxPoint x="460" y="259" />
            </Array>
          </mxGeometry>
        </mxCell>
        <mxCell id="_4vvvY8Deeb2kWK_XAvJ-12" value="&lt;font style=&quot;font-size: 14px;&quot;&gt;Ext B&lt;/font&gt;" style="rounded=0;whiteSpace=wrap;html=1;" vertex="1" parent="1">
          <mxGeometry x="490" y="233.75" width="110" height="50" as="geometry" />
        </mxCell>
        <mxCell id="_4vvvY8Deeb2kWK_XAvJ-13" value="" style="swimlane;startSize=0;fontSize=14;" vertex="1" parent="1">
          <mxGeometry x="235" y="190" width="190" height="151.25" as="geometry" />
        </mxCell>
        <mxCell id="_4vvvY8Deeb2kWK_XAvJ-19" style="edgeStyle=orthogonalEdgeStyle;rounded=0;orthogonalLoop=1;jettySize=auto;html=1;entryX=0;entryY=0.5;entryDx=0;entryDy=0;fontSize=14;" edge="1" parent="_4vvvY8Deeb2kWK_XAvJ-13" source="_4vvvY8Deeb2kWK_XAvJ-14" target="_4vvvY8Deeb2kWK_XAvJ-15">
          <mxGeometry relative="1" as="geometry" />
        </mxCell>
        <mxCell id="_4vvvY8Deeb2kWK_XAvJ-14" value="1" style="ellipse;whiteSpace=wrap;html=1;aspect=fixed;fontSize=14;" vertex="1" parent="_4vvvY8Deeb2kWK_XAvJ-13">
          <mxGeometry x="11.25" y="11.25" width="40" height="40" as="geometry" />
        </mxCell>
        <mxCell id="_4vvvY8Deeb2kWK_XAvJ-15" value="2" style="ellipse;whiteSpace=wrap;html=1;aspect=fixed;fontSize=14;" vertex="1" parent="_4vvvY8Deeb2kWK_XAvJ-13">
          <mxGeometry x="75" y="11.25" width="40" height="40" as="geometry" />
        </mxCell>
        <mxCell id="_4vvvY8Deeb2kWK_XAvJ-16" value="3" style="ellipse;whiteSpace=wrap;html=1;aspect=fixed;fontSize=14;" vertex="1" parent="_4vvvY8Deeb2kWK_XAvJ-13">
          <mxGeometry x="75" y="100" width="40" height="40" as="geometry" />
        </mxCell>
        <mxCell id="_4vvvY8Deeb2kWK_XAvJ-17" value="4" style="ellipse;whiteSpace=wrap;html=1;aspect=fixed;fontSize=14;" vertex="1" parent="_4vvvY8Deeb2kWK_XAvJ-13">
          <mxGeometry x="145" y="11.25" width="40" height="40" as="geometry" />
        </mxCell>
        <mxCell id="_4vvvY8Deeb2kWK_XAvJ-18" value="" style="edgeStyle=orthogonalEdgeStyle;rounded=0;orthogonalLoop=1;jettySize=auto;html=1;fontSize=14;" edge="1" parent="_4vvvY8Deeb2kWK_XAvJ-13" source="_4vvvY8Deeb2kWK_XAvJ-15" target="_4vvvY8Deeb2kWK_XAvJ-17">
          <mxGeometry relative="1" as="geometry" />
        </mxCell>
        <mxCell id="_4vvvY8Deeb2kWK_XAvJ-21" value="" style="endArrow=classic;html=1;rounded=0;fontSize=14;entryX=0;entryY=0.5;entryDx=0;entryDy=0;exitX=0.5;exitY=1;exitDx=0;exitDy=0;" edge="1" parent="_4vvvY8Deeb2kWK_XAvJ-13" source="_4vvvY8Deeb2kWK_XAvJ-14" target="_4vvvY8Deeb2kWK_XAvJ-16">
          <mxGeometry width="50" height="50" relative="1" as="geometry">
            <mxPoint x="165" y="21.25" as="sourcePoint" />
            <mxPoint x="215" y="-28.75" as="targetPoint" />
          </mxGeometry>
        </mxCell>
        <mxCell id="_4vvvY8Deeb2kWK_XAvJ-27" style="edgeStyle=orthogonalEdgeStyle;rounded=0;orthogonalLoop=1;jettySize=auto;html=1;exitX=0.5;exitY=0;exitDx=0;exitDy=0;entryX=1;entryY=1;entryDx=0;entryDy=0;fontSize=14;" edge="1" parent="_4vvvY8Deeb2kWK_XAvJ-13" source="_4vvvY8Deeb2kWK_XAvJ-25" target="_4vvvY8Deeb2kWK_XAvJ-15">
          <mxGeometry relative="1" as="geometry" />
        </mxCell>
        <mxCell id="_4vvvY8Deeb2kWK_XAvJ-25" value="F1" style="shape=partialRectangle;whiteSpace=wrap;html=1;left=0;right=0;fillColor=none;fontSize=14;" vertex="1" parent="_4vvvY8Deeb2kWK_XAvJ-13">
          <mxGeometry x="105" y="66.25" width="20" height="18.75" as="geometry" />
        </mxCell>
        <mxCell id="_4vvvY8Deeb2kWK_XAvJ-29" style="edgeStyle=orthogonalEdgeStyle;rounded=0;orthogonalLoop=1;jettySize=auto;html=1;exitX=0.5;exitY=0;exitDx=0;exitDy=0;entryX=0.5;entryY=1;entryDx=0;entryDy=0;fontSize=14;" edge="1" parent="_4vvvY8Deeb2kWK_XAvJ-13" source="_4vvvY8Deeb2kWK_XAvJ-28" target="_4vvvY8Deeb2kWK_XAvJ-17">
          <mxGeometry relative="1" as="geometry" />
        </mxCell>
        <mxCell id="_4vvvY8Deeb2kWK_XAvJ-28" value="F2" style="shape=partialRectangle;whiteSpace=wrap;html=1;left=0;right=0;fillColor=none;fontSize=14;" vertex="1" parent="_4vvvY8Deeb2kWK_XAvJ-13">
          <mxGeometry x="155" y="66.25" width="20" height="18.75" as="geometry" />
        </mxCell>
        <mxCell id="_4vvvY8Deeb2kWK_XAvJ-23" value="" style="endArrow=classic;html=1;rounded=0;fontSize=14;entryX=0;entryY=0;entryDx=0;entryDy=0;exitX=1;exitY=1;exitDx=0;exitDy=0;" edge="1" parent="1" source="_4vvvY8Deeb2kWK_XAvJ-17" target="_4vvvY8Deeb2kWK_XAvJ-12">
          <mxGeometry width="50" height="50" relative="1" as="geometry">
            <mxPoint x="400" y="210" as="sourcePoint" />
            <mxPoint x="450" y="160" as="targetPoint" />
          </mxGeometry>
        </mxCell>
        <mxCell id="_4vvvY8Deeb2kWK_XAvJ-30" value="" style="endArrow=none;dashed=1;html=1;dashPattern=1 3;strokeWidth=2;rounded=0;fontSize=14;entryX=0.5;entryY=1;entryDx=0;entryDy=0;exitX=0;exitY=0;exitDx=0;exitDy=0;" edge="1" parent="1" source="_4vvvY8Deeb2kWK_XAvJ-13" target="_4vvvY8Deeb2kWK_XAvJ-3">
          <mxGeometry width="50" height="50" relative="1" as="geometry">
            <mxPoint x="310" y="150" as="sourcePoint" />
            <mxPoint x="360" y="100" as="targetPoint" />
          </mxGeometry>
        </mxCell>
        <mxCell id="_4vvvY8Deeb2kWK_XAvJ-31" value="" style="endArrow=none;dashed=1;html=1;dashPattern=1 3;strokeWidth=2;rounded=0;fontSize=14;entryX=1;entryY=0;entryDx=0;entryDy=0;exitX=0.5;exitY=1;exitDx=0;exitDy=0;" edge="1" parent="1" source="_4vvvY8Deeb2kWK_XAvJ-3" target="_4vvvY8Deeb2kWK_XAvJ-13">
          <mxGeometry width="50" height="50" relative="1" as="geometry">
            <mxPoint x="310" y="150" as="sourcePoint" />
            <mxPoint x="360" y="100" as="targetPoint" />
          </mxGeometry>
        </mxCell>
      </root>
    </mxGraphModel>
  </diagram>
</mxfile>
